<?xml version="1.0" encoding="UTF-8"?>
<svg id="Layer_1" xmlns="http://www.w3.org/2000/svg" version="1.1" viewBox="0 0 595.28 481.89">
  <!-- Generator: Adobe Illustrator 29.7.1, SVG Export Plug-In . SVG Version: 2.1.1 Build 8)  -->
  <defs>
    <style>
      .st0 {
        fill: #14b0e6;
      }

      .st1 {
        fill: #fff;
      }
    </style>
  </defs>
  <g>
    <path class="st0" d="M313.7,377.29c0-4.37.49-8.14,1.48-11.31.99-3.17,2.27-5.85,3.86-8.03,1.59-2.18,3.37-3.94,5.34-5.27,1.98-1.33,3.97-2.35,5.97-3.08,2-.73,3.9-1.21,5.7-1.45,1.79-.23,3.31-.35,4.56-.35s2.77.12,4.56.35c1.79.23,3.69.71,5.69,1.45,2,.73,3.99,1.75,5.97,3.08,1.98,1.32,3.76,3.08,5.34,5.27,1.58,2.18,2.87,4.86,3.86,8.03.99,3.17,1.48,6.94,1.48,11.31s-.5,8.14-1.48,11.31c-.99,3.17-2.28,5.85-3.86,8.03-1.59,2.19-3.37,3.94-5.34,5.27-1.98,1.32-3.97,2.35-5.97,3.08-2,.73-3.9,1.21-5.69,1.44-1.8.23-3.32.35-4.56.35s-2.77-.12-4.56-.35c-1.79-.23-3.7-.71-5.7-1.44-2-.73-3.99-1.75-5.97-3.08-1.97-1.33-3.76-3.08-5.34-5.27-1.59-2.18-2.87-4.86-3.86-8.03-.99-3.17-1.48-6.94-1.48-11.31ZM325.4,377.29c0,3.9.49,7.12,1.48,9.67.99,2.55,2.23,4.55,3.75,6,1.51,1.46,3.16,2.47,4.95,3.04,1.79.57,3.47.86,5.03.86s3.24-.29,5.03-.86c1.79-.57,3.44-1.59,4.95-3.04,1.51-1.46,2.76-3.46,3.74-6,.99-2.55,1.48-5.77,1.48-9.67,0-3.9-.49-7.12-1.48-9.67-.99-2.55-2.24-4.55-3.74-6.01-1.51-1.46-3.16-2.47-4.95-3.04-1.8-.57-3.47-.86-5.03-.86s-3.24.29-5.03.86c-1.79.57-3.45,1.59-4.95,3.04-1.51,1.46-2.76,3.46-3.75,6.01-.99,2.55-1.48,5.77-1.48,9.67Z"/>
    <path class="st0" d="M383.88,392.03c0,.57.24,1.11.74,1.6.49.49,1.03.74,1.6.74h5.46v10.92h-10.3c-.99,0-1.98-.26-2.96-.78-.99-.52-1.89-1.22-2.69-2.11-.81-.88-1.47-1.92-1.99-3.12-.52-1.19-.78-2.47-.78-3.82v-34.63c0-.52-.21-1.02-.63-1.48-.42-.47-.88-.7-1.4-.7h-3.43v-9.36h9.36c1.09,0,2.08.24,2.97.7.88.46,1.62,1.07,2.22,1.79.6.73,1.05,1.51,1.37,2.34s.47,1.61.47,2.34v35.57Z"/>
    <path class="st0" d="M436.3,393.83c0,.51.21,1,.63,1.44.41.44.88.66,1.4.66h2.65v9.36h-9.98c-.68,0-1.34-.16-1.99-.47-.65-.31-1.25-.77-1.79-1.37-.55-.6-.99-1.3-1.33-2.11-.34-.8-.51-1.68-.51-2.61v-17.08c0-.79-.04-1.64-.12-2.57-.08-.94-.35-1.82-.82-2.65-.47-.83-1.18-1.53-2.15-2.1-.96-.58-2.3-.86-4.02-.86-2.44,0-4.48.81-6.12,2.42-1.64,1.61-2.46,4-2.46,7.18v15.67c0,.68-.22,1.41-.66,2.18-.44.78-1,1.5-1.68,2.14-.67.65-1.4,1.18-2.19,1.6-.78.41-1.51.62-2.18.62h-8.89v-9.36h2.58c.47,0,.93-.21,1.4-.63.47-.41.7-.85.7-1.32v-33.23c0-.52-.22-1-.66-1.44-.44-.44-.93-.66-1.44-.66h-2.57v-9.36s8.58,0,8.58,0c.99,0,1.91.25,2.77.74.86.5,1.6,1.13,2.22,1.91.63.78,1.12,1.62,1.48,2.53.37.91.55,1.79.55,2.61v13.65s.16,0,.16,0c.36-.83.91-1.65,1.64-2.46.73-.8,1.61-1.49,2.65-2.06,1.04-.57,2.21-1.04,3.51-1.4,1.3-.37,2.7-.55,4.21-.55,2.03,0,3.93.3,5.69.9,1.77.6,3.29,1.48,4.56,2.65,1.27,1.17,2.29,2.61,3.04,4.33.75,1.72,1.13,3.72,1.13,6v15.68Z"/>
    <path class="st0" d="M485.28,393.9c0,.47.2.92.58,1.36.39.44.82.66,1.28.66h2.81v9.36h-9.28c-.52,0-1.11-.13-1.76-.39-.65-.26-1.25-.62-1.79-1.09-.55-.47-1-1.03-1.36-1.68-.36-.65-.55-1.36-.55-2.15v-1.09c-1.25,2.34-3.04,4.17-5.38,5.5-2.34,1.32-4.89,1.98-7.64,1.98s-5.41-.43-7.8-1.29c-2.39-.85-4.48-2.18-6.28-3.98-1.79-1.79-3.19-4.07-4.21-6.82-1.01-2.75-1.52-6-1.52-9.75s.59-6.98,1.76-9.71c1.17-2.73,2.73-4.99,4.68-6.79,1.95-1.79,4.2-3.13,6.75-4.01,2.55-.88,5.23-1.33,8.04-1.33,1.04,0,2.13.13,3.28.39,1.14.26,2.23.62,3.28,1.09,1.03.47,2.01,1.03,2.92,1.68.91.65,1.65,1.34,2.22,2.06v-3.74h9.98v29.72ZM479.28,349.77c-.1.57-.3,1.39-.58,2.46-.29,1.07-.74,2.1-1.37,3.12-.62,1.01-1.47,1.9-2.54,2.65-1.06.76-2.4,1.14-4.01,1.14-1.25,0-2.45-.15-3.59-.43-1.15-.28-2.21-.61-3.2-.98-.99-.37-1.89-.69-2.69-.98-.8-.29-1.47-.43-1.99-.43-.67,0-1.25.13-1.71.38-.47.26-.83.57-1.09.94-.26.37-.46.74-.59,1.13-.13.39-.22.69-.27.89h-5c.16-.78.42-1.72.78-2.84.36-1.12.9-2.17,1.6-3.16.7-.99,1.62-1.83,2.77-2.54,1.14-.7,2.57-1.05,4.29-1.05.57,0,1.38.14,2.42.43,1.04.29,2.11.61,3.2.98,1.09.36,2.09.69,3,.98.91.29,1.52.43,1.83.43,1.3,0,2.2-.35,2.69-1.05.49-.7.82-1.39.98-2.07h5.07ZM473.58,384.54c0-1.3-.13-2.69-.39-4.17-.26-1.48-.74-2.85-1.44-4.09-.7-1.25-1.72-2.29-3.04-3.12-1.33-.83-3.03-1.25-5.11-1.25s-3.85.41-5.15,1.25c-1.3.83-2.3,1.87-3,3.12-.7,1.25-1.18,2.61-1.44,4.09-.26,1.48-.39,2.88-.39,4.17s.13,2.77.39,4.25c.26,1.48.74,2.85,1.44,4.1.7,1.25,1.7,2.28,3,3.08,1.3.81,3.02,1.21,5.15,1.21,2.08,0,3.79-.4,5.11-1.21,1.32-.8,2.34-1.83,3.04-3.08.7-1.25,1.18-2.62,1.44-4.1.26-1.48.39-2.9.39-4.25Z"/>
    <path class="st0" d="M534.5,384.54c0,3.75-.59,7-1.76,9.75-1.17,2.76-2.73,5.03-4.68,6.82-1.95,1.79-4.2,3.12-6.74,3.98-2.55.86-5.23,1.29-8.04,1.29s-5.49-.43-8.03-1.29c-2.55-.85-4.79-2.18-6.75-3.98-1.95-1.79-3.51-4.07-4.68-6.82-1.17-2.75-1.76-6-1.76-9.75s.59-6.98,1.76-9.71c1.17-2.73,2.73-4.99,4.68-6.79,1.95-1.79,4.2-3.13,6.75-4.01,2.55-.88,5.23-1.33,8.03-1.33s5.49.44,8.03,1.33c2.55.88,4.8,2.22,6.75,4.01,1.95,1.8,3.51,4.06,4.68,6.79,1.17,2.73,1.76,5.96,1.76,9.71ZM523.27,384.54c0-1.3-.13-2.69-.39-4.17-.26-1.48-.74-2.85-1.44-4.09-.7-1.25-1.72-2.29-3.04-3.12-1.33-.83-3.03-1.25-5.11-1.25s-3.85.41-5.15,1.25c-1.3.83-2.3,1.87-3,3.12-.7,1.25-1.18,2.61-1.44,4.09-.26,1.48-.39,2.88-.39,4.17,0,1.36.13,2.77.39,4.25.26,1.48.74,2.85,1.44,4.1.7,1.24,1.7,2.27,3,3.08,1.3.81,3.01,1.21,5.15,1.21s3.78-.4,5.11-1.21c1.33-.8,2.34-1.83,3.04-3.08.7-1.25,1.18-2.62,1.44-4.1.26-1.48.39-2.9.39-4.25Z"/>
  </g>
  <g>
    <path class="st0" d="M131.09,216.94c0-75.19,60.96-136.15,136.15-136.15s136.15,60.96,136.15,136.15c0,61.15-40.32,112.88-95.81,130.08l-40.34,59.76-40.33-59.76c-55.5-17.2-95.82-68.93-95.82-130.08Z"/>
    <path class="st1" d="M207.94,302.73c17.06,10.1,36.96,15.93,58.24,15.93,45.89,0,85.47-27.01,103.74-66-26.59,3.22-59.12,3.58-71.2,3.53l-1.95-16.83,60.33,3.4,15.05-80.01-161.03,71.57,79.35,4.67,1.98,17.14c-31.65-.49-62.77-3.9-89.39-10.25l-2.65-11.45c-9.41-2.26-18.25-4.88-26.36-7.88.4,2.27,12.28,46.75,33.88,76.18Z"/>
  </g>
  <g>
    <path class="st0" d="M108.92,360.45c-.56,0-1.1.22-1.63.65-.53.43-.9.92-1.1,1.48l-14.69,43.15h-10.83l-14.38-43c-.2-.61-.58-1.13-1.13-1.59-.56-.45-1.14-.68-1.74-.68h-2.65v-9.08h7.72c.91,0,1.78.18,2.61.53.83.35,1.6.84,2.31,1.47.71.63,1.33,1.38,1.85,2.23.53.86.95,1.77,1.25,2.72l9.69,34.22h.15l9.76-34.22c.56-1.92,1.58-3.56,3.07-4.92,1.49-1.36,3.14-2.04,4.96-2.04h7.72v9.08h-2.95Z"/>
    <path class="st0" d="M118.46,376.57c0-.5-.2-.97-.61-1.4-.41-.43-.86-.64-1.36-.64h-2.57v-9.08h8.7c1.11,0,2.07.19,2.88.57.81.38,1.48.87,2.01,1.48.53.6.92,1.29,1.17,2.04.25.76.38,1.54.38,2.35v21.35c0,.41.21.82.64,1.25.43.43.84.64,1.25.64h2.65v10.6h-8.63c-.81,0-1.6-.26-2.39-.79-.78-.53-1.47-1.19-2.08-1.97-.61-.78-1.1-1.66-1.48-2.65-.38-.98-.57-1.93-.57-2.84v-20.89ZM115.13,354.32c0-1.82.63-3.36,1.89-4.62,1.26-1.26,2.78-1.89,4.54-1.89s3.36.63,4.62,1.89c1.26,1.26,1.89,2.8,1.89,4.62s-.63,3.28-1.89,4.54c-1.26,1.26-2.8,1.89-4.62,1.89s-3.28-.63-4.54-1.89c-1.26-1.26-1.89-2.78-1.89-4.54Z"/>
    <path class="st0" d="M161.15,379.22v-2.65c0-1.16-.53-2.14-1.59-2.95-1.06-.81-2.83-1.21-5.3-1.21-1.46,0-2.62.13-3.48.38-.86.25-1.51.57-1.97.95-.45.38-.75.79-.87,1.25-.13.45-.19.91-.19,1.36,0,1.06.62,1.87,1.85,2.42,1.24.56,2.79,1.03,4.65,1.44,1.87.41,3.9.82,6.09,1.25,2.2.43,4.23,1.09,6.1,1.97,1.87.88,3.42,2.07,4.65,3.56,1.24,1.49,1.85,3.47,1.85,5.94,0,2.93-.62,5.3-1.85,7.11-1.24,1.82-2.76,3.22-4.58,4.2-1.82.98-3.75,1.65-5.79,2.01-2.04.35-3.85.53-5.41.53-2.07,0-4.23-.16-6.47-.49-2.25-.33-4.29-.89-6.13-1.7-1.84-.81-3.37-1.92-4.58-3.33-1.21-1.41-1.82-3.18-1.82-5.3v-3.86h11.28v3.71c0,1.06.77,1.82,2.31,2.27,1.54.45,3.44.68,5.72.68,1.36,0,2.49-.15,3.37-.45.88-.3,1.56-.65,2.04-1.06.48-.4.82-.84,1.02-1.32.2-.48.3-.92.3-1.32,0-1.11-.62-1.96-1.85-2.54-1.24-.58-2.78-1.07-4.62-1.48-1.84-.4-3.85-.82-6.02-1.25-2.17-.43-4.18-1.07-6.02-1.93-1.84-.86-3.38-2.03-4.62-3.52-1.24-1.49-1.85-3.49-1.85-6.02,0-1.46.25-2.99.76-4.58.5-1.59,1.39-3.04,2.65-4.35,1.26-1.31,2.94-2.4,5.03-3.26,2.09-.86,4.71-1.29,7.84-1.29,1.87,0,3.86.14,5.98.41,2.12.28,4.06.85,5.83,1.7,1.77.86,3.23,2.07,4.39,3.64,1.16,1.56,1.74,3.63,1.74,6.21v2.88h-10.45Z"/>
    <path class="st0" d="M180.08,376.57c0-.5-.2-.97-.61-1.4-.41-.43-.86-.64-1.36-.64h-2.57v-9.08h8.71c1.11,0,2.07.19,2.88.57.81.38,1.48.87,2.01,1.48.53.6.92,1.29,1.17,2.04.25.76.38,1.54.38,2.35v21.35c0,.41.21.82.64,1.25.43.43.85.64,1.25.64h2.65v10.6h-8.63c-.81,0-1.6-.26-2.38-.79-.78-.53-1.48-1.19-2.08-1.97-.61-.78-1.1-1.66-1.48-2.65-.38-.98-.57-1.93-.57-2.84v-20.89ZM176.74,354.32c0-1.82.63-3.36,1.89-4.62,1.26-1.26,2.78-1.89,4.54-1.89s3.35.63,4.62,1.89c1.26,1.26,1.89,2.8,1.89,4.62s-.63,3.28-1.89,4.54c-1.26,1.26-2.8,1.89-4.62,1.89s-3.28-.63-4.54-1.89c-1.26-1.26-1.89-2.78-1.89-4.54Z"/>
    <path class="st0" d="M213.15,365.44h6.59v7.57h-6.59v18.32c0,.41.02.85.08,1.33.05.48.21.93.49,1.36.28.43.72.79,1.32,1.1.6.3,1.44.45,2.5.45h1.97v10.6c-.25,0-.53.01-.83.04-.3.02-.63.04-.98.04-.71,0-1.47-.02-2.27-.04-.81-.03-1.72-.04-2.72-.04-2.98,0-5.41-1.11-7.3-3.33-1.89-2.22-2.84-5.45-2.84-9.69v-20.14h-5.45v-7.57h5.45v-14.08h10.6v14.08Z"/>
  </g>
</svg>