<?xml version="1.0" encoding="UTF-8"?>
<svg id="Layer_1" xmlns="http://www.w3.org/2000/svg" version="1.1" viewBox="0 0 595.28 198.43">
  <!-- Generator: Adobe Illustrator 29.7.1, SVG Export Plug-In . SVG Version: 2.1.1 Build 8)  -->
  <defs>
    <style>
      .st0 {
        fill: #14b0e6;
      }

      .st1 {
        fill: #fff;
      }
    </style>
  </defs>
  <g>
    <path class="st0" d="M325.47,99.2c0-3.95.45-7.35,1.34-10.22.89-2.87,2.05-5.29,3.49-7.26,1.43-1.97,3.04-3.56,4.83-4.76,1.79-1.2,3.58-2.13,5.39-2.78,1.81-.66,3.53-1.09,5.15-1.31,1.62-.21,2.99-.31,4.12-.31s2.5.11,4.12.31c1.62.21,3.33.65,5.14,1.31,1.81.66,3.6,1.58,5.39,2.78,1.79,1.2,3.4,2.78,4.83,4.76,1.43,1.97,2.6,4.39,3.49,7.26.89,2.87,1.34,6.27,1.34,10.22s-.45,7.36-1.34,10.22c-.89,2.86-2.06,5.28-3.49,7.26-1.43,1.97-3.04,3.56-4.83,4.76-1.79,1.2-3.58,2.12-5.39,2.78-1.81.66-3.52,1.09-5.14,1.3-1.62.21-3,.32-4.12.32s-2.5-.11-4.12-.32c-1.62-.21-3.34-.65-5.15-1.3-1.81-.66-3.61-1.59-5.39-2.78-1.78-1.2-3.39-2.79-4.83-4.76-1.43-1.97-2.6-4.39-3.49-7.26-.89-2.87-1.34-6.27-1.34-10.22ZM336.05,99.2c0,3.53.44,6.44,1.34,8.74.89,2.3,2.02,4.11,3.38,5.43,1.36,1.32,2.85,2.23,4.47,2.75,1.62.51,3.14.78,4.55.78s2.92-.26,4.55-.78c1.62-.52,3.11-1.43,4.47-2.75,1.36-1.32,2.49-3.13,3.38-5.43.89-2.3,1.34-5.22,1.34-8.74,0-3.52-.45-6.44-1.34-8.74-.89-2.3-2.02-4.11-3.38-5.43-1.36-1.32-2.85-2.23-4.47-2.75-1.62-.52-3.14-.77-4.55-.77s-2.93.26-4.55.77c-1.62.52-3.11,1.43-4.47,2.75-1.37,1.32-2.49,3.13-3.38,5.43-.89,2.3-1.34,5.22-1.34,8.74Z"/>
    <path class="st0" d="M388.9,112.52c0,.52.22,1,.67,1.45.45.45.93.67,1.45.67h4.93v9.87h-9.3c-.89,0-1.79-.24-2.68-.7-.89-.47-1.71-1.11-2.43-1.9-.73-.8-1.33-1.74-1.8-2.82-.47-1.08-.71-2.23-.71-3.45v-31.29c0-.47-.19-.92-.57-1.34-.38-.43-.8-.63-1.27-.63h-3.1v-8.46h8.46c.99,0,1.88.21,2.68.64.8.42,1.47.96,2.01,1.62.54.66.95,1.36,1.23,2.11s.42,1.46.42,2.12v32.14Z"/>
    <path class="st0" d="M436.26,114.14c0,.47.19.9.57,1.3.37.4.8.6,1.27.6h2.4v8.46h-9.02c-.61,0-1.21-.14-1.8-.42-.59-.28-1.13-.69-1.62-1.24-.5-.54-.89-1.17-1.2-1.9-.31-.73-.46-1.51-.46-2.36v-15.43c0-.71-.04-1.48-.1-2.33-.07-.85-.32-1.65-.74-2.4-.42-.75-1.07-1.39-1.94-1.9-.87-.52-2.08-.78-3.63-.78-2.21,0-4.05.73-5.53,2.19-1.48,1.46-2.22,3.62-2.22,6.49v14.16c0,.61-.2,1.27-.6,1.97-.4.7-.9,1.35-1.52,1.94-.61.59-1.27,1.07-1.98,1.45-.7.37-1.36.56-1.97.56h-8.04v-8.46h2.33c.42,0,.84-.19,1.27-.57.42-.37.64-.77.64-1.2v-30.03c0-.47-.2-.91-.6-1.3-.4-.4-.84-.6-1.3-.6h-2.33v-8.46s7.75,0,7.75,0c.89,0,1.73.22,2.5.67.77.45,1.45,1.02,2.01,1.73.57.71,1.01,1.47,1.34,2.29.33.82.49,1.61.5,2.36v12.33s.14,0,.14,0c.33-.75.82-1.49,1.48-2.22.66-.72,1.46-1.35,2.4-1.86.94-.52,2-.94,3.17-1.27,1.18-.33,2.44-.49,3.81-.49,1.83,0,3.55.27,5.14.81,1.6.54,2.97,1.34,4.12,2.39,1.15,1.06,2.07,2.36,2.75,3.91.68,1.55,1.02,3.36,1.02,5.43v14.17Z"/>
    <path class="st0" d="M480.53,114.21c0,.42.18.83.53,1.23.36.4.75.6,1.16.6h2.54v8.46h-8.39c-.47,0-1-.12-1.59-.35-.59-.23-1.13-.56-1.62-.98-.49-.43-.9-.93-1.23-1.52-.33-.59-.49-1.23-.49-1.94v-.99c-1.13,2.12-2.75,3.77-4.86,4.97-2.11,1.2-4.42,1.79-6.91,1.79s-4.89-.39-7.05-1.16c-2.16-.77-4.05-1.97-5.67-3.59-1.62-1.62-2.89-3.68-3.81-6.17-.92-2.49-1.37-5.43-1.37-8.81s.53-6.3,1.59-8.77c1.06-2.47,2.46-4.51,4.23-6.14,1.76-1.62,3.79-2.83,6.1-3.63,2.3-.8,4.72-1.2,7.26-1.2.94,0,1.93.12,2.96.35,1.03.24,2.02.56,2.96.99.94.42,1.82.93,2.64,1.51.82.59,1.49,1.21,2.01,1.87v-3.38h9.02v26.85ZM475.1,74.33c-.09.52-.27,1.26-.53,2.22-.26.96-.67,1.9-1.24,2.82-.56.92-1.33,1.71-2.29,2.39-.96.69-2.17,1.03-3.63,1.03-1.13,0-2.21-.13-3.24-.39-1.04-.26-2-.55-2.89-.88-.89-.33-1.7-.63-2.43-.88-.73-.26-1.33-.39-1.8-.39-.61,0-1.13.12-1.55.35-.42.24-.75.52-.99.85-.24.33-.41.67-.53,1.02-.11.35-.2.63-.24.81h-4.52c.14-.7.38-1.56.71-2.57.33-1.01.81-1.96,1.44-2.85.64-.89,1.47-1.66,2.5-2.29,1.03-.63,2.33-.95,3.88-.95.52,0,1.25.13,2.18.39.94.26,1.91.55,2.89.88.99.33,1.89.62,2.71.88.82.26,1.37.39,1.65.39,1.18,0,1.99-.32,2.43-.95.44-.64.74-1.26.88-1.87h4.58ZM469.95,105.75c0-1.17-.12-2.43-.35-3.77-.24-1.34-.67-2.57-1.31-3.7-.63-1.13-1.55-2.07-2.75-2.82-1.2-.75-2.74-1.13-4.62-1.13s-3.48.37-4.65,1.13c-1.18.75-2.08,1.69-2.71,2.82-.63,1.13-1.07,2.36-1.31,3.7-.23,1.34-.35,2.6-.35,3.77s.12,2.5.35,3.84c.24,1.34.67,2.57,1.31,3.7.64,1.13,1.54,2.06,2.71,2.78,1.17.73,2.73,1.09,4.65,1.09,1.88,0,3.42-.36,4.62-1.09,1.2-.73,2.11-1.66,2.75-2.78.64-1.13,1.07-2.36,1.31-3.7.23-1.34.35-2.62.35-3.84Z"/>
    <path class="st0" d="M525,105.75c0,3.39-.53,6.32-1.59,8.81-1.06,2.49-2.47,4.55-4.23,6.17-1.76,1.62-3.8,2.82-6.1,3.59-2.3.78-4.72,1.16-7.26,1.16s-4.96-.39-7.26-1.16c-2.3-.77-4.33-1.97-6.1-3.59-1.76-1.62-3.17-3.67-4.23-6.17-1.06-2.49-1.59-5.43-1.59-8.81s.53-6.31,1.59-8.77c1.06-2.47,2.47-4.51,4.23-6.14,1.76-1.62,3.79-2.83,6.1-3.63,2.3-.8,4.72-1.2,7.26-1.2s4.96.4,7.26,1.2c2.3.8,4.33,2.01,6.1,3.63,1.76,1.62,3.17,3.67,4.23,6.14,1.06,2.47,1.59,5.39,1.59,8.77ZM514.85,105.75c0-1.17-.12-2.43-.35-3.77-.24-1.34-.67-2.57-1.3-3.7-.64-1.13-1.55-2.07-2.75-2.82-1.2-.75-2.74-1.13-4.62-1.13s-3.48.37-4.65,1.13c-1.18.75-2.08,1.69-2.71,2.82-.63,1.13-1.07,2.36-1.3,3.7-.23,1.34-.35,2.6-.35,3.77,0,1.22.11,2.5.35,3.84.24,1.34.67,2.57,1.3,3.7.64,1.12,1.54,2.06,2.71,2.78,1.18.73,2.72,1.09,4.65,1.09s3.42-.36,4.62-1.09c1.2-.73,2.11-1.66,2.75-2.78.63-1.13,1.07-2.36,1.3-3.7.23-1.34.35-2.62.35-3.84Z"/>
  </g>
  <g>
    <path class="st0" d="M113.78,83.98c-.5,0-.99.2-1.47.58-.48.39-.81.83-.99,1.33l-13.27,38.99h-9.78l-13-38.85c-.18-.55-.52-1.03-1.03-1.44-.5-.41-1.03-.62-1.57-.62h-2.4v-8.21h6.98c.82,0,1.61.16,2.36.48.75.32,1.45.76,2.09,1.33.64.57,1.2,1.24,1.68,2.02.48.78.86,1.6,1.13,2.46l8.76,30.92h.14l8.82-30.92c.5-1.73,1.43-3.22,2.77-4.45,1.34-1.23,2.84-1.85,4.48-1.85h6.98v8.21h-2.67Z"/>
    <path class="st0" d="M122.4,98.55c0-.46-.18-.88-.55-1.27-.37-.39-.78-.58-1.23-.58h-2.33v-8.21h7.87c1,0,1.87.17,2.6.51.73.34,1.33.79,1.81,1.33.48.55.83,1.16,1.06,1.85.23.68.34,1.39.34,2.12v19.29c0,.37.19.74.58,1.13.39.39.76.58,1.13.58h2.4v9.58h-7.8c-.73,0-1.45-.24-2.16-.72-.71-.48-1.33-1.07-1.88-1.78-.55-.7-.99-1.5-1.33-2.39-.34-.89-.51-1.74-.51-2.57v-18.88ZM119.39,78.44c0-1.64.57-3.03,1.71-4.17,1.14-1.14,2.51-1.71,4.1-1.71s3.03.57,4.17,1.71c1.14,1.14,1.71,2.53,1.71,4.17s-.57,2.97-1.71,4.11c-1.14,1.14-2.53,1.71-4.17,1.71s-2.96-.57-4.1-1.71c-1.14-1.14-1.71-2.51-1.71-4.11Z"/>
    <path class="st0" d="M160.98,100.94v-2.39c0-1.05-.48-1.94-1.44-2.67-.96-.73-2.56-1.09-4.79-1.09-1.32,0-2.37.12-3.15.34-.78.23-1.37.51-1.78.85-.41.34-.67.72-.79,1.13-.11.41-.17.82-.17,1.23,0,.96.56,1.69,1.68,2.19,1.12.5,2.52.93,4.21,1.3,1.69.37,3.52.74,5.51,1.13,1.98.39,3.82.98,5.51,1.78,1.69.8,3.09,1.87,4.21,3.21,1.12,1.35,1.68,3.14,1.68,5.37,0,2.65-.56,4.79-1.68,6.43-1.12,1.64-2.5,2.91-4.14,3.8-1.64.89-3.39,1.49-5.23,1.81-1.85.32-3.48.48-4.89.48-1.87,0-3.82-.15-5.85-.44-2.03-.3-3.88-.81-5.54-1.54-1.66-.73-3.04-1.73-4.14-3.01-1.09-1.28-1.64-2.87-1.64-4.79v-3.49h10.19v3.35c0,.96.69,1.64,2.09,2.05,1.39.41,3.11.61,5.16.61,1.23,0,2.25-.14,3.04-.41.8-.27,1.41-.59,1.85-.96.43-.36.74-.76.92-1.2.18-.43.27-.83.27-1.2,0-1-.56-1.77-1.68-2.29-1.12-.52-2.51-.97-4.17-1.33-1.67-.36-3.48-.74-5.44-1.13-1.96-.39-3.77-.97-5.44-1.74-1.67-.77-3.06-1.83-4.17-3.18-1.12-1.34-1.68-3.16-1.68-5.44,0-1.32.23-2.7.68-4.14.45-1.44,1.25-2.75,2.39-3.93,1.14-1.19,2.66-2.16,4.55-2.94,1.89-.78,4.25-1.16,7.08-1.16,1.69,0,3.49.12,5.4.37,1.91.25,3.67.77,5.27,1.54,1.6.78,2.92,1.87,3.97,3.29,1.05,1.41,1.57,3.28,1.57,5.61v2.6h-9.44Z"/>
    <path class="st0" d="M178.08,98.55c0-.46-.18-.88-.55-1.27-.37-.39-.78-.58-1.23-.58h-2.33v-8.21h7.87c1,0,1.87.17,2.6.51.73.34,1.33.79,1.81,1.33.48.55.83,1.16,1.06,1.85.23.68.34,1.39.34,2.12v19.29c0,.37.19.74.58,1.13.39.39.76.58,1.13.58h2.39v9.58h-7.8c-.73,0-1.45-.24-2.15-.72-.71-.48-1.33-1.07-1.88-1.78-.55-.7-.99-1.5-1.33-2.39-.34-.89-.51-1.74-.51-2.57v-18.88ZM175.07,78.44c0-1.64.57-3.03,1.71-4.17,1.14-1.14,2.51-1.71,4.1-1.71s3.03.57,4.17,1.71c1.14,1.14,1.71,2.53,1.71,4.17s-.57,2.97-1.71,4.11c-1.14,1.14-2.53,1.71-4.17,1.71s-2.97-.57-4.1-1.71-1.71-2.51-1.71-4.11Z"/>
    <path class="st0" d="M207.97,88.49h5.95v6.84h-5.95v16.55c0,.37.02.77.07,1.2.05.43.19.84.45,1.23.25.39.65.72,1.2.99.55.27,1.3.41,2.26.41h1.78v9.58c-.23,0-.48,0-.75.03-.27.02-.57.03-.89.03-.64,0-1.32-.01-2.05-.03-.73-.02-1.55-.03-2.46-.03-2.69,0-4.89-1-6.6-3.01-1.71-2.01-2.56-4.92-2.56-8.76v-18.2h-4.93v-6.84h4.93v-12.72h9.58v12.72Z"/>
  </g>
  <g>
    <path class="st0" d="M223.1,89.88c0-26.15,21.2-47.36,47.36-47.36s47.36,21.2,47.36,47.36c0,21.27-14.02,39.26-33.33,45.24l-14.03,20.79-14.03-20.79c-19.3-5.98-33.33-23.98-33.33-45.24Z"/>
    <path class="st1" d="M249.83,119.72c5.94,3.51,12.86,5.54,20.26,5.54,15.96,0,29.73-9.4,36.08-22.96-9.25,1.12-20.56,1.25-24.76,1.23l-.68-5.85,20.98,1.18,5.23-27.83-56.01,24.89,27.6,1.62.69,5.96c-11.01-.17-21.83-1.36-31.09-3.57l-.92-3.98c-3.27-.78-6.35-1.7-9.17-2.74.14.79,4.27,16.26,11.79,26.5Z"/>
  </g>
</svg>