<?xml version="1.0" encoding="UTF-8"?>
<svg id="Layer_1" xmlns="http://www.w3.org/2000/svg" version="1.1" viewBox="0 0 425.2 425.2">
  <!-- Generator: Adobe Illustrator 29.7.1, SVG Export Plug-In . SVG Version: 2.1.1 Build 8)  -->
  <defs>
    <style>
      .st0 {
        fill: #14b0e6;
      }

      .st1 {
        fill: #fff;
      }
    </style>
  </defs>
  <path class="st0" d="M342.83,186.92c0-71.92-58.31-130.23-130.23-130.23S82.37,115,82.37,186.92c0,58.49,38.56,107.97,91.65,124.42l38.58,57.16,38.58-57.16c53.08-16.44,91.65-65.93,91.65-124.42Z"/>
  <g>
    <path class="st1" d="M186.98,107.07c-.35,0-.71.11-1.08.32-.37.21-.61.47-.71.79l-7.07,20.62h-7.75l-6.96-20.56c-.11-.31-.33-.59-.66-.81-.34-.23-.68-.34-1.03-.34h-2.8v-6.33h5.38c.63,0,1.24.12,1.82.37.58.24,1.12.59,1.63,1.03.51.44.95.96,1.32,1.55.37.6.64,1.23.82,1.9l4.43,15.82h.11l4.64-15.82c.17-.64.48-1.24.9-1.82.42-.58.91-1.09,1.48-1.53.56-.44,1.18-.8,1.84-1.08.67-.28,1.32-.42,1.95-.42h4.64v6.33h-2.9Z"/>
    <path class="st1" d="M195.1,108.5c0-.35-.14-.68-.42-.98-.28-.3-.6-.45-.95-.45h-1.79v-6.33h6.06c.77,0,1.44.13,2,.4.56.26,1.03.61,1.4,1.03.37.42.64.9.82,1.42.17.53.26,1.07.26,1.64v14.87c0,.28.15.57.45.87.3.3.59.45.87.45h1.85v7.38h-6.01c-.56,0-1.12-.18-1.66-.55-.54-.37-1.03-.83-1.45-1.37-.42-.55-.77-1.16-1.03-1.85-.26-.68-.4-1.34-.4-1.97v-14.55ZM192.78,93c0-1.27.44-2.34,1.32-3.22.88-.88,1.93-1.32,3.16-1.32s2.34.44,3.22,1.32c.88.88,1.32,1.95,1.32,3.22s-.44,2.29-1.32,3.16c-.88.88-1.95,1.32-3.22,1.32s-2.28-.44-3.16-1.32c-.88-.88-1.32-1.93-1.32-3.16Z"/>
    <path class="st1" d="M225.41,110.35v-1.85c0-.81-.37-1.49-1.11-2.06-.74-.56-1.97-.84-3.69-.84-1.02,0-1.83.09-2.42.26-.6.17-1.05.39-1.37.66-.32.26-.52.55-.61.87-.09.32-.14.63-.14.95,0,.74.43,1.3,1.29,1.68.86.39,1.94.72,3.24,1,1.3.28,2.72.57,4.24.87,1.53.3,2.94.76,4.25,1.37,1.3.62,2.38,1.44,3.24,2.48.86,1.03,1.29,2.41,1.29,4.13,0,2.04-.43,3.69-1.29,4.96-.86,1.27-1.93,2.24-3.19,2.93-1.27.69-2.61,1.15-4.03,1.4-1.42.24-2.68.37-3.77.37-1.44,0-2.94-.11-4.51-.34-1.56-.23-2.99-.62-4.27-1.18-1.28-.56-2.35-1.33-3.19-2.32-.85-.98-1.27-2.21-1.27-3.69v-2.69h7.86v2.58c0,.74.54,1.27,1.61,1.58,1.07.31,2.4.47,3.98.47.95,0,1.73-.1,2.34-.31.62-.21,1.09-.46,1.43-.74.33-.28.57-.59.71-.92.14-.33.21-.64.21-.92,0-.78-.43-1.36-1.3-1.77-.86-.4-1.93-.75-3.22-1.03-1.28-.28-2.68-.57-4.19-.87-1.51-.3-2.91-.75-4.19-1.34-1.28-.6-2.36-1.41-3.22-2.45-.86-1.04-1.29-2.44-1.29-4.2,0-1.02.17-2.08.53-3.19.35-1.11.97-2.12,1.84-3.03.88-.91,2.05-1.67,3.51-2.27,1.46-.59,3.28-.89,5.46-.89,1.3,0,2.69.1,4.16.29,1.48.19,2.83.59,4.06,1.18,1.23.6,2.25,1.44,3.06,2.53.81,1.09,1.21,2.53,1.21,4.33v2.01h-7.27Z"/>
    <path class="st1" d="M238.31,108.5c0-.35-.14-.68-.42-.98-.28-.3-.59-.45-.95-.45h-1.79v-6.33h6.07c.77,0,1.44.13,2,.4.56.26,1.03.61,1.4,1.03.37.42.64.9.82,1.42.17.53.26,1.07.26,1.64v14.87c0,.28.15.57.44.87.3.3.59.45.87.45h1.85v7.38h-6.01c-.56,0-1.11-.18-1.66-.55-.54-.37-1.03-.83-1.45-1.37-.42-.55-.76-1.16-1.03-1.85-.26-.68-.4-1.34-.4-1.97v-14.55ZM235.99,93c0-1.27.44-2.34,1.32-3.22.88-.88,1.93-1.32,3.17-1.32s2.33.44,3.21,1.32c.88.88,1.32,1.95,1.32,3.22s-.44,2.29-1.32,3.16c-.88.88-1.95,1.32-3.21,1.32s-2.29-.44-3.17-1.32c-.88-.88-1.32-1.93-1.32-3.16Z"/>
    <path class="st1" d="M259.87,100.75h4.59v5.27h-4.59v12.76c0,.28.02.59.05.92.04.33.15.65.34.95.19.3.5.55.92.77.42.21,1,.32,1.74.32h1.37v7.38c-.18,0-.37,0-.58.02-.21.02-.44.03-.68.03-.49,0-1.02,0-1.58-.03-.56-.02-1.2-.02-1.9-.02-2.07,0-3.77-.77-5.09-2.32-1.32-1.55-1.98-3.8-1.98-6.75v-14.03h-3.79v-5.27h3.79v-9.81h7.38v9.81Z"/>
  </g>
  <g>
    <path class="st1" d="M105.91,165.92c0-4.18.47-7.78,1.42-10.81.94-3.03,2.17-5.6,3.69-7.68,1.52-2.09,3.22-3.76,5.11-5.03,1.89-1.27,3.79-2.25,5.71-2.94,1.91-.7,3.73-1.16,5.44-1.38,1.72-.22,3.17-.33,4.36-.33s2.64.11,4.36.33c1.71.23,3.53.68,5.44,1.38,1.91.69,3.81,1.68,5.7,2.94,1.89,1.27,3.59,2.94,5.11,5.03,1.51,2.09,2.75,4.65,3.69,7.68.94,3.03,1.42,6.63,1.42,10.81s-.47,7.78-1.42,10.81c-.94,3.03-2.18,5.59-3.69,7.68-1.52,2.09-3.22,3.77-5.11,5.04-1.89,1.27-3.79,2.25-5.7,2.94-1.91.7-3.73,1.16-5.44,1.38-1.72.22-3.17.34-4.36.34s-2.65-.12-4.36-.34c-1.71-.22-3.53-.68-5.44-1.38-1.91-.69-3.82-1.68-5.71-2.94-1.89-1.27-3.59-2.95-5.11-5.04-1.52-2.09-2.75-4.65-3.69-7.68-.94-3.03-1.42-6.64-1.42-10.81ZM117.09,165.92c0,3.73.47,6.81,1.42,9.25.94,2.43,2.14,4.35,3.58,5.74,1.44,1.39,3.02,2.36,4.73,2.91,1.71.55,3.32.82,4.81.82s3.09-.28,4.81-.82c1.72-.55,3.29-1.52,4.73-2.91,1.44-1.39,2.63-3.31,3.58-5.74.95-2.44,1.42-5.52,1.42-9.25s-.47-6.81-1.42-9.24c-.94-2.43-2.14-4.35-3.58-5.74-1.44-1.39-3.02-2.36-4.73-2.91-1.71-.55-3.32-.82-4.81-.82s-3.1.27-4.81.82c-1.72.55-3.29,1.52-4.73,2.91-1.44,1.39-2.64,3.31-3.58,5.74-.94,2.43-1.42,5.52-1.42,9.24Z"/>
    <path class="st1" d="M172.99,180.02c0,.55.23,1.06.71,1.53.47.47.98.71,1.53.71h5.22v10.44h-9.84c-.94,0-1.89-.25-2.83-.75-.94-.49-1.8-1.17-2.57-2.01-.77-.84-1.4-1.84-1.9-2.98-.5-1.14-.75-2.36-.75-3.65v-33.1c0-.49-.2-.97-.6-1.42-.4-.45-.84-.67-1.34-.67h-3.28v-8.95h8.95c1.04,0,1.99.22,2.83.67.84.44,1.55,1.02,2.12,1.71.57.7,1.01,1.44,1.31,2.24.3.79.45,1.54.45,2.24v34Z"/>
    <path class="st1" d="M223.1,181.73c0,.49.2.96.6,1.38.4.42.84.63,1.34.63h2.53v8.95h-9.54c-.65,0-1.28-.15-1.9-.45-.62-.3-1.19-.73-1.71-1.31-.52-.57-.94-1.24-1.27-2.01-.33-.77-.49-1.6-.49-2.5v-16.32c0-.75-.04-1.57-.11-2.46-.08-.9-.33-1.74-.78-2.54-.45-.79-1.13-1.47-2.05-2.01-.92-.55-2.2-.82-3.84-.82-2.34,0-4.29.77-5.85,2.31-1.56,1.54-2.35,3.83-2.35,6.86v14.98c0,.65-.21,1.34-.63,2.09-.42.75-.96,1.43-1.6,2.05-.65.62-1.34,1.13-2.09,1.53-.74.4-1.44.6-2.08.6h-8.5v-8.95h2.46c.45,0,.89-.2,1.34-.6.45-.39.67-.82.67-1.26v-31.76c0-.5-.21-.96-.63-1.38-.42-.42-.88-.63-1.38-.63h-2.46v-8.95h8.2c.94,0,1.83.24,2.65.71.82.47,1.53,1.08,2.12,1.83.6.75,1.07,1.55,1.42,2.42.35.87.52,1.7.52,2.5v13.05h.15c.35-.79.87-1.58,1.57-2.35.69-.77,1.54-1.43,2.53-1.97.99-.55,2.11-.99,3.36-1.34,1.24-.35,2.58-.52,4.03-.52,1.94,0,3.75.29,5.44.86,1.69.57,3.14,1.42,4.36,2.53,1.22,1.12,2.19,2.5,2.91,4.14.72,1.64,1.08,3.55,1.08,5.74v14.99Z"/>
    <path class="st1" d="M269.92,181.81c0,.45.19.88.56,1.31.37.42.79.63,1.23.63h2.69v8.95h-8.87c-.5,0-1.06-.12-1.68-.37-.62-.25-1.19-.59-1.72-1.04-.52-.45-.96-.98-1.3-1.6-.35-.62-.52-1.3-.52-2.05v-1.05c-1.19,2.24-2.91,3.99-5.14,5.26-2.24,1.27-4.67,1.9-7.31,1.9s-5.17-.41-7.46-1.23c-2.28-.82-4.29-2.08-6-3.8-1.71-1.72-3.05-3.89-4.03-6.52-.97-2.63-1.45-5.74-1.45-9.32s.56-6.67,1.68-9.28c1.12-2.61,2.61-4.77,4.47-6.49,1.86-1.72,4.01-2.99,6.45-3.84,2.44-.85,5-1.27,7.68-1.27.99,0,2.04.13,3.13.37,1.09.25,2.14.59,3.13,1.05.99.45,1.92.98,2.79,1.6.87.62,1.58,1.28,2.13,1.97v-3.58h9.54v28.4ZM264.18,139.62c-.1.55-.29,1.33-.56,2.35-.27,1.02-.71,2.01-1.31,2.98-.6.97-1.41,1.81-2.43,2.53-1.02.73-2.3,1.08-3.84,1.08-1.19,0-2.34-.14-3.43-.41-1.1-.27-2.12-.58-3.06-.93-.95-.35-1.8-.66-2.57-.93-.77-.27-1.4-.41-1.9-.41-.64,0-1.19.12-1.64.37-.45.25-.8.55-1.04.9-.25.35-.44.71-.56,1.08-.12.37-.21.66-.25.86h-4.78c.15-.74.4-1.65.75-2.72.35-1.07.86-2.07,1.53-3.02.67-.94,1.55-1.75,2.65-2.42,1.09-.67,2.46-1.01,4.1-1.01.55,0,1.32.14,2.31.41.99.27,2.01.59,3.06.93,1.04.35,2,.66,2.87.93.87.27,1.45.41,1.75.41,1.24,0,2.1-.34,2.57-1.01.47-.67.78-1.33.93-1.98h4.85ZM258.74,172.86c0-1.24-.13-2.57-.37-3.99-.25-1.42-.71-2.72-1.38-3.91-.67-1.19-1.64-2.19-2.91-2.98-1.27-.8-2.9-1.19-4.88-1.19s-3.68.4-4.92,1.19c-1.25.79-2.2,1.79-2.87,2.98-.67,1.19-1.13,2.5-1.38,3.91-.25,1.42-.37,2.75-.37,3.99s.12,2.65.37,4.06c.25,1.42.71,2.72,1.38,3.92.67,1.19,1.63,2.17,2.87,2.94,1.24.77,2.88,1.16,4.92,1.16s3.62-.38,4.88-1.16c1.27-.77,2.23-1.75,2.91-2.94.67-1.19,1.13-2.5,1.38-3.92.25-1.42.37-2.77.37-4.06Z"/>
    <path class="st1" d="M316.97,172.86c0,3.58-.56,6.69-1.68,9.32-1.12,2.63-2.61,4.81-4.47,6.52-1.86,1.72-4.01,2.98-6.45,3.8-2.44.82-5,1.23-7.68,1.23s-5.24-.41-7.68-1.23c-2.43-.82-4.58-2.08-6.45-3.8-1.86-1.72-3.35-3.89-4.47-6.52-1.12-2.63-1.68-5.74-1.68-9.32s.56-6.67,1.68-9.28c1.12-2.61,2.61-4.77,4.47-6.49,1.87-1.72,4.01-2.99,6.45-3.84,2.44-.85,5-1.27,7.68-1.27s5.24.42,7.68,1.27c2.43.84,4.58,2.12,6.45,3.84,1.87,1.72,3.36,3.88,4.47,6.49,1.12,2.61,1.68,5.7,1.68,9.28ZM306.23,172.86c0-1.24-.13-2.57-.37-3.99-.25-1.42-.71-2.72-1.38-3.91-.67-1.19-1.64-2.19-2.91-2.98-1.27-.8-2.9-1.19-4.88-1.19s-3.68.4-4.92,1.19c-1.24.79-2.2,1.79-2.87,2.98-.67,1.19-1.13,2.5-1.38,3.91-.25,1.42-.37,2.75-.37,3.99s.12,2.65.37,4.06c.25,1.42.71,2.72,1.38,3.92.67,1.19,1.63,2.17,2.87,2.94,1.24.77,2.88,1.16,4.92,1.16s3.62-.38,4.88-1.16c1.27-.77,2.23-1.75,2.91-2.94.67-1.19,1.13-2.5,1.38-3.92.25-1.42.37-2.77.37-4.06Z"/>
  </g>
  <path class="st1" d="M299.78,264.51c-20.19,1.98-44.78,1.54-56.82.69l-.61-12.61,51.78,7.41c.46-.66,14.95-60.97,14.95-60.97l-130.16,45.57,58.76,7.4.62,12.84c-23.5-1.94-46.47-6.01-65.94-12.05l-1.4-8.65c-6.88-2.14-13.33-4.53-19.2-7.16.19,1.76,7.23,37.5,22.8,60.43,11.93,4.12,24.71,6.39,38.04,6.39,34.71,0,65.85-15.21,87.18-39.31Z"/>
</svg>